<svg id="visual" viewBox="0 0 1920 500" width="1920" height="500" xmlns="http://www.w3.org/2000/svg" xmlns:xlink="http://www.w3.org/1999/xlink" version="1.1"><path d="M0 401L32 408.2C64 415.3 128 429.7 192 419.3C256 409 320 374 384 374.8C448 375.7 512 412.3 576 420.3C640 428.3 704 407.7 768 412.8C832 418 896 449 960 441.8C1024 434.7 1088 389.3 1152 374.8C1216 360.3 1280 376.7 1344 391C1408 405.3 1472 417.7 1536 429C1600 440.3 1664 450.7 1728 452.2C1792 453.7 1856 446.3 1888 442.7L1920 439L1920 0L1888 0C1856 0 1792 0 1728 0C1664 0 1600 0 1536 0C1472 0 1408 0 1344 0C1280 0 1216 0 1152 0C1088 0 1024 0 960 0C896 0 832 0 768 0C704 0 640 0 576 0C512 0 448 0 384 0C320 0 256 0 192 0C128 0 64 0 32 0L0 0Z" fill="#424242"></path><path d="M0 341L32 350.2C64 359.3 128 377.7 192 372.2C256 366.7 320 337.3 384 340.2C448 343 512 378 576 385C640 392 704 371 768 374.7C832 378.3 896 406.7 960 411.3C1024 416 1088 397 1152 394.7C1216 392.3 1280 406.7 1344 416.5C1408 426.3 1472 431.7 1536 414.8C1600 398 1664 359 1728 354.5C1792 350 1856 380 1888 395L1920 410L1920 0L1888 0C1856 0 1792 0 1728 0C1664 0 1600 0 1536 0C1472 0 1408 0 1344 0C1280 0 1216 0 1152 0C1088 0 1024 0 960 0C896 0 832 0 768 0C704 0 640 0 576 0C512 0 448 0 384 0C320 0 256 0 192 0C128 0 64 0 32 0L0 0Z" fill="#3c3c3c"></path><path d="M0 313L32 329.7C64 346.3 128 379.7 192 373.7C256 367.7 320 322.3 384 306.2C448 290 512 303 576 312.2C640 321.3 704 326.7 768 329.7C832 332.7 896 333.3 960 332.8C1024 332.3 1088 330.7 1152 334.8C1216 339 1280 349 1344 361.7C1408 374.3 1472 389.7 1536 384.3C1600 379 1664 353 1728 343.7C1792 334.3 1856 341.7 1888 345.3L1920 349L1920 0L1888 0C1856 0 1792 0 1728 0C1664 0 1600 0 1536 0C1472 0 1408 0 1344 0C1280 0 1216 0 1152 0C1088 0 1024 0 960 0C896 0 832 0 768 0C704 0 640 0 576 0C512 0 448 0 384 0C320 0 256 0 192 0C128 0 64 0 32 0L0 0Z" fill="#373737"></path><path d="M0 335L32 339.3C64 343.7 128 352.3 192 355.2C256 358 320 355 384 339.3C448 323.7 512 295.3 576 282C640 268.7 704 270.3 768 274.8C832 279.3 896 286.7 960 298.3C1024 310 1088 326 1152 331.2C1216 336.3 1280 330.7 1344 335C1408 339.3 1472 353.7 1536 343.5C1600 333.3 1664 298.7 1728 293.2C1792 287.7 1856 311.3 1888 323.2L1920 335L1920 0L1888 0C1856 0 1792 0 1728 0C1664 0 1600 0 1536 0C1472 0 1408 0 1344 0C1280 0 1216 0 1152 0C1088 0 1024 0 960 0C896 0 832 0 768 0C704 0 640 0 576 0C512 0 448 0 384 0C320 0 256 0 192 0C128 0 64 0 32 0L0 0Z" fill="#313131"></path><path d="M0 322L32 304.8C64 287.7 128 253.3 192 249.3C256 245.3 320 271.7 384 274C448 276.3 512 254.7 576 255.3C640 256 704 279 768 296.3C832 313.7 896 325.3 960 331.3C1024 337.3 1088 337.7 1152 323.7C1216 309.7 1280 281.3 1344 268.3C1408 255.3 1472 257.7 1536 256.2C1600 254.7 1664 249.3 1728 258.5C1792 267.7 1856 291.3 1888 303.2L1920 315L1920 0L1888 0C1856 0 1792 0 1728 0C1664 0 1600 0 1536 0C1472 0 1408 0 1344 0C1280 0 1216 0 1152 0C1088 0 1024 0 960 0C896 0 832 0 768 0C704 0 640 0 576 0C512 0 448 0 384 0C320 0 256 0 192 0C128 0 64 0 32 0L0 0Z" fill="#2c2c2c"></path><path d="M0 231L32 227.8C64 224.7 128 218.3 192 211.3C256 204.3 320 196.7 384 201C448 205.3 512 221.7 576 233.5C640 245.3 704 252.7 768 259.7C832 266.7 896 273.3 960 275.5C1024 277.7 1088 275.3 1152 259.7C1216 244 1280 215 1344 218.3C1408 221.7 1472 257.3 1536 273.8C1600 290.3 1664 287.7 1728 284.2C1792 280.7 1856 276.3 1888 274.2L1920 272L1920 0L1888 0C1856 0 1792 0 1728 0C1664 0 1600 0 1536 0C1472 0 1408 0 1344 0C1280 0 1216 0 1152 0C1088 0 1024 0 960 0C896 0 832 0 768 0C704 0 640 0 576 0C512 0 448 0 384 0C320 0 256 0 192 0C128 0 64 0 32 0L0 0Z" fill="#272727"></path><path d="M0 156L32 158C64 160 128 164 192 177.5C256 191 320 214 384 218C448 222 512 207 576 201.5C640 196 704 200 768 211.2C832 222.3 896 240.7 960 240.5C1024 240.3 1088 221.7 1152 222.8C1216 224 1280 245 1344 245.2C1408 245.3 1472 224.7 1536 222.2C1600 219.7 1664 235.3 1728 233.3C1792 231.3 1856 211.7 1888 201.8L1920 192L1920 0L1888 0C1856 0 1792 0 1728 0C1664 0 1600 0 1536 0C1472 0 1408 0 1344 0C1280 0 1216 0 1152 0C1088 0 1024 0 960 0C896 0 832 0 768 0C704 0 640 0 576 0C512 0 448 0 384 0C320 0 256 0 192 0C128 0 64 0 32 0L0 0Z" fill="#212121"></path><path d="M0 205L32 203.5C64 202 128 199 192 200C256 201 320 206 384 198.7C448 191.3 512 171.7 576 164.7C640 157.7 704 163.3 768 164.8C832 166.3 896 163.7 960 164.2C1024 164.7 1088 168.3 1152 179.3C1216 190.3 1280 208.7 1344 208.5C1408 208.3 1472 189.7 1536 181.3C1600 173 1664 175 1728 181.7C1792 188.3 1856 199.7 1888 205.3L1920 211L1920 0L1888 0C1856 0 1792 0 1728 0C1664 0 1600 0 1536 0C1472 0 1408 0 1344 0C1280 0 1216 0 1152 0C1088 0 1024 0 960 0C896 0 832 0 768 0C704 0 640 0 576 0C512 0 448 0 384 0C320 0 256 0 192 0C128 0 64 0 32 0L0 0Z" fill="#1c1c1c"></path><path d="M0 157L32 147C64 137 128 117 192 114.3C256 111.7 320 126.3 384 133.5C448 140.7 512 140.3 576 141.3C640 142.3 704 144.7 768 150.5C832 156.3 896 165.7 960 168.2C1024 170.7 1088 166.3 1152 156C1216 145.7 1280 129.3 1344 126.2C1408 123 1472 133 1536 132.7C1600 132.3 1664 121.7 1728 124.5C1792 127.3 1856 143.7 1888 151.8L1920 160L1920 0L1888 0C1856 0 1792 0 1728 0C1664 0 1600 0 1536 0C1472 0 1408 0 1344 0C1280 0 1216 0 1152 0C1088 0 1024 0 960 0C896 0 832 0 768 0C704 0 640 0 576 0C512 0 448 0 384 0C320 0 256 0 192 0C128 0 64 0 32 0L0 0Z" fill="#171717"></path><path d="M0 134L32 122.2C64 110.3 128 86.7 192 89C256 91.3 320 119.7 384 133.2C448 146.7 512 145.3 576 141.3C640 137.3 704 130.7 768 117.5C832 104.3 896 84.7 960 75.2C1024 65.7 1088 66.3 1152 66.5C1216 66.7 1280 66.3 1344 76.3C1408 86.3 1472 106.7 1536 110.5C1600 114.3 1664 101.7 1728 101.2C1792 100.7 1856 112.3 1888 118.2L1920 124L1920 0L1888 0C1856 0 1792 0 1728 0C1664 0 1600 0 1536 0C1472 0 1408 0 1344 0C1280 0 1216 0 1152 0C1088 0 1024 0 960 0C896 0 832 0 768 0C704 0 640 0 576 0C512 0 448 0 384 0C320 0 256 0 192 0C128 0 64 0 32 0L0 0Z" fill="#111111"></path><path d="M0 50L32 46.7C64 43.3 128 36.7 192 45.7C256 54.7 320 79.3 384 79.3C448 79.3 512 54.7 576 47.2C640 39.7 704 49.3 768 49.7C832 50 896 41 960 44.2C1024 47.3 1088 62.7 1152 65.7C1216 68.7 1280 59.3 1344 52.8C1408 46.3 1472 42.7 1536 43.3C1600 44 1664 49 1728 55.7C1792 62.3 1856 70.7 1888 74.8L1920 79L1920 0L1888 0C1856 0 1792 0 1728 0C1664 0 1600 0 1536 0C1472 0 1408 0 1344 0C1280 0 1216 0 1152 0C1088 0 1024 0 960 0C896 0 832 0 768 0C704 0 640 0 576 0C512 0 448 0 384 0C320 0 256 0 192 0C128 0 64 0 32 0L0 0Z" fill="#090909"></path><path d="M0 36L32 41.8C64 47.7 128 59.3 192 59.8C256 60.3 320 49.7 384 50.2C448 50.7 512 62.3 576 58.8C640 55.3 704 36.7 768 26.3C832 16 896 14 960 22.5C1024 31 1088 50 1152 59C1216 68 1280 67 1344 57.5C1408 48 1472 30 1536 31.2C1600 32.3 1664 52.7 1728 60.2C1792 67.7 1856 62.3 1888 59.7L1920 57L1920 0L1888 0C1856 0 1792 0 1728 0C1664 0 1600 0 1536 0C1472 0 1408 0 1344 0C1280 0 1216 0 1152 0C1088 0 1024 0 960 0C896 0 832 0 768 0C704 0 640 0 576 0C512 0 448 0 384 0C320 0 256 0 192 0C128 0 64 0 32 0L0 0Z" fill="#000000"></path></svg>