<svg id="visual" viewBox="0 0 1920 1080" width="1920" height="1080" xmlns="http://www.w3.org/2000/svg" xmlns:xlink="http://www.w3.org/1999/xlink" version="1.1"><g stroke-width="1" stroke-linejoin="bevel"><path d="M969 507L786 391L822 560Z" fill="#2e2e2e" stroke="#FFED8A"></path><path d="M969 507L1015 340L786 391Z" fill="#303030" stroke="#FFED8A"></path><path d="M786 391L650 484L822 560Z" fill="#2e2e2e" stroke="#FFED8A"></path><path d="M1015 340L935 244L786 391Z" fill="#303030" stroke="#FFED8A"></path><path d="M786 391L618 282L650 484Z" fill="#2b2b2b" stroke="#FFED8A"></path><path d="M650 484L764 695L822 560Z" fill="#2e2e2e" stroke="#FFED8A"></path><path d="M822 560L871 813L969 507Z" fill="#313131" stroke="#FFED8A"></path><path d="M715 153L618 282L786 391Z" fill="#292929" stroke="#FFED8A"></path><path d="M935 244L715 153L786 391Z" fill="#232323" stroke="#FFED8A"></path><path d="M764 695L871 813L822 560Z" fill="#282828" stroke="#FFED8A"></path><path d="M1213 610L1202 297L1015 340Z" fill="#262626" stroke="#FFED8A"></path><path d="M1015 340L1179 196L935 244Z" fill="#333333" stroke="#FFED8A"></path><path d="M935 244L763 0L715 153Z" fill="#292929" stroke="#FFED8A"></path><path d="M1213 610L1015 340L969 507Z" fill="#2e2e2e" stroke="#FFED8A"></path><path d="M871 813L1213 610L969 507Z" fill="#2e2e2e" stroke="#FFED8A"></path><path d="M650 484L616 778L764 695Z" fill="#333333" stroke="#FFED8A"></path><path d="M764 695L850 895L871 813Z" fill="#313131" stroke="#FFED8A"></path><path d="M430 590L616 778L650 484Z" fill="#313131" stroke="#FFED8A"></path><path d="M1202 297L1179 196L1015 340Z" fill="#282828" stroke="#FFED8A"></path><path d="M715 153L491 260L618 282Z" fill="#2b2b2b" stroke="#FFED8A"></path><path d="M618 282L491 260L650 484Z" fill="#282828" stroke="#FFED8A"></path><path d="M1213 610L1285 348L1202 297Z" fill="#282828" stroke="#FFED8A"></path><path d="M1202 297L1283 212L1179 196Z" fill="#282828" stroke="#FFED8A"></path><path d="M616 778L850 895L764 695Z" fill="#2d2d2d" stroke="#FFED8A"></path><path d="M871 813L1203 806L1213 610Z" fill="#313131" stroke="#FFED8A"></path><path d="M1213 610L1297 553L1285 348Z" fill="#232323" stroke="#FFED8A"></path><path d="M1385 776L1297 553L1213 610Z" fill="#2e2e2e" stroke="#FFED8A"></path><path d="M491 260L430 590L650 484Z" fill="#2d2d2d" stroke="#FFED8A"></path><path d="M1057 0L763 0L935 244Z" fill="#262626" stroke="#FFED8A"></path><path d="M715 153L609 0L491 260Z" fill="#333333" stroke="#FFED8A"></path><path d="M1158 980L1203 806L871 813Z" fill="#313131" stroke="#FFED8A"></path><path d="M1285 348L1283 212L1202 297Z" fill="#2d2d2d" stroke="#FFED8A"></path><path d="M1179 196L1057 0L935 244Z" fill="#262626" stroke="#FFED8A"></path><path d="M1458 315L1283 212L1285 348Z" fill="#262626" stroke="#FFED8A"></path><path d="M363 733L608 876L616 778Z" fill="#282828" stroke="#FFED8A"></path><path d="M616 778L608 876L850 895Z" fill="#2b2b2b" stroke="#FFED8A"></path><path d="M1197 0L1057 0L1179 196Z" fill="#2d2d2d" stroke="#FFED8A"></path><path d="M879 1080L891 967L778 1080Z" fill="#333333" stroke="#FFED8A"></path><path d="M850 895L891 967L871 813Z" fill="#313131" stroke="#FFED8A"></path><path d="M763 0L609 0L715 153Z" fill="#282828" stroke="#FFED8A"></path><path d="M1283 212L1197 0L1179 196Z" fill="#292929" stroke="#FFED8A"></path><path d="M1158 980L1290 853L1203 806Z" fill="#282828" stroke="#FFED8A"></path><path d="M1203 806L1385 776L1213 610Z" fill="#252525" stroke="#FFED8A"></path><path d="M180 569L363 733L430 590Z" fill="#292929" stroke="#FFED8A"></path><path d="M430 590L363 733L616 778Z" fill="#2e2e2e" stroke="#FFED8A"></path><path d="M891 967L1158 980L871 813Z" fill="#313131" stroke="#FFED8A"></path><path d="M1544 741L1385 776L1576 811Z" fill="#303030" stroke="#FFED8A"></path><path d="M1290 853L1385 776L1203 806Z" fill="#232323" stroke="#FFED8A"></path><path d="M1537 454L1458 315L1285 348Z" fill="#303030" stroke="#FFED8A"></path><path d="M609 0L478 0L491 260Z" fill="#2e2e2e" stroke="#FFED8A"></path><path d="M491 260L287 292L430 590Z" fill="#262626" stroke="#FFED8A"></path><path d="M1537 454L1285 348L1297 553Z" fill="#262626" stroke="#FFED8A"></path><path d="M1283 212L1378 0L1197 0Z" fill="#2d2d2d" stroke="#FFED8A"></path><path d="M289 241L287 292L491 260Z" fill="#262626" stroke="#FFED8A"></path><path d="M778 1080L891 967L850 895Z" fill="#2d2d2d" stroke="#FFED8A"></path><path d="M891 967L879 1080L1158 980Z" fill="#2d2d2d" stroke="#FFED8A"></path><path d="M778 1080L850 895L608 876Z" fill="#303030" stroke="#FFED8A"></path><path d="M274 200L289 241L491 260Z" fill="#282828" stroke="#FFED8A"></path><path d="M503 1080L778 1080L608 876Z" fill="#282828" stroke="#FFED8A"></path><path d="M478 0L274 200L491 260Z" fill="#313131" stroke="#FFED8A"></path><path d="M289 241L103 326L287 292Z" fill="#2d2d2d" stroke="#FFED8A"></path><path d="M1544 741L1537 454L1297 553Z" fill="#252525" stroke="#FFED8A"></path><path d="M1563 266L1378 0L1458 315Z" fill="#313131" stroke="#FFED8A"></path><path d="M1458 315L1378 0L1283 212Z" fill="#232323" stroke="#FFED8A"></path><path d="M287 292L180 569L430 590Z" fill="#313131" stroke="#FFED8A"></path><path d="M103 326L180 569L287 292Z" fill="#232323" stroke="#FFED8A"></path><path d="M1158 980L1217 1080L1290 853Z" fill="#333333" stroke="#FFED8A"></path><path d="M879 1080L1217 1080L1158 980Z" fill="#333333" stroke="#FFED8A"></path><path d="M366 992L503 1080L608 876Z" fill="#2b2b2b" stroke="#FFED8A"></path><path d="M366 992L608 876L363 733Z" fill="#252525" stroke="#FFED8A"></path><path d="M1537 454L1563 266L1458 315Z" fill="#292929" stroke="#FFED8A"></path><path d="M1576 811L1385 776L1510 1080Z" fill="#2d2d2d" stroke="#FFED8A"></path><path d="M1385 776L1544 741L1297 553Z" fill="#292929" stroke="#FFED8A"></path><path d="M1537 454L1724 248L1563 266Z" fill="#292929" stroke="#FFED8A"></path><path d="M103 987L366 992L363 733Z" fill="#303030" stroke="#FFED8A"></path><path d="M366 992L455 1080L503 1080Z" fill="#292929" stroke="#FFED8A"></path><path d="M0 630L136 708L180 569Z" fill="#232323" stroke="#FFED8A"></path><path d="M180 569L136 708L363 733Z" fill="#313131" stroke="#FFED8A"></path><path d="M0 159L103 326L274 200Z" fill="#292929" stroke="#FFED8A"></path><path d="M274 200L103 326L289 241Z" fill="#2e2e2e" stroke="#FFED8A"></path><path d="M1383 1080L1385 776L1290 853Z" fill="#282828" stroke="#FFED8A"></path><path d="M1544 741L1709 657L1537 454Z" fill="#292929" stroke="#FFED8A"></path><path d="M1217 1080L1383 1080L1290 853Z" fill="#292929" stroke="#FFED8A"></path><path d="M1563 266L1532 0L1378 0Z" fill="#232323" stroke="#FFED8A"></path><path d="M1576 811L1709 657L1544 741Z" fill="#2b2b2b" stroke="#FFED8A"></path><path d="M1563 266L1682 0L1532 0Z" fill="#262626" stroke="#FFED8A"></path><path d="M1754 864L1709 657L1576 811Z" fill="#2d2d2d" stroke="#FFED8A"></path><path d="M103 326L0 467L180 569Z" fill="#2d2d2d" stroke="#FFED8A"></path><path d="M1709 657L1726 613L1537 454Z" fill="#303030" stroke="#FFED8A"></path><path d="M103 326L0 434L0 467Z" fill="#262626" stroke="#FFED8A"></path><path d="M1804 450L1724 248L1537 454Z" fill="#282828" stroke="#FFED8A"></path><path d="M478 0L116 0L274 200Z" fill="#282828" stroke="#FFED8A"></path><path d="M103 326L0 159L0 434Z" fill="#303030" stroke="#FFED8A"></path><path d="M0 467L0 630L180 569Z" fill="#313131" stroke="#FFED8A"></path><path d="M103 987L233 1080L366 992Z" fill="#2b2b2b" stroke="#FFED8A"></path><path d="M103 987L363 733L136 708Z" fill="#313131" stroke="#FFED8A"></path><path d="M366 992L233 1080L455 1080Z" fill="#232323" stroke="#FFED8A"></path><path d="M1383 1080L1510 1080L1385 776Z" fill="#262626" stroke="#FFED8A"></path><path d="M116 0L0 159L274 200Z" fill="#232323" stroke="#FFED8A"></path><path d="M0 880L103 987L136 708Z" fill="#232323" stroke="#FFED8A"></path><path d="M1724 248L1682 0L1563 266Z" fill="#2d2d2d" stroke="#FFED8A"></path><path d="M1726 613L1804 450L1537 454Z" fill="#2e2e2e" stroke="#FFED8A"></path><path d="M1724 248L1920 147L1682 0Z" fill="#292929" stroke="#FFED8A"></path><path d="M1920 459L1804 450L1920 589Z" fill="#282828" stroke="#FFED8A"></path><path d="M0 630L0 880L136 708Z" fill="#333333" stroke="#FFED8A"></path><path d="M1510 1080L1754 864L1576 811Z" fill="#303030" stroke="#FFED8A"></path><path d="M1920 639L1920 589L1726 613Z" fill="#262626" stroke="#FFED8A"></path><path d="M116 0L0 0L0 159Z" fill="#292929" stroke="#FFED8A"></path><path d="M1920 589L1804 450L1726 613Z" fill="#303030" stroke="#FFED8A"></path><path d="M1804 450L1920 459L1724 248Z" fill="#252525" stroke="#FFED8A"></path><path d="M1920 639L1726 613L1709 657Z" fill="#303030" stroke="#FFED8A"></path><path d="M1754 864L1920 639L1709 657Z" fill="#282828" stroke="#FFED8A"></path><path d="M0 880L0 1080L103 987Z" fill="#262626" stroke="#FFED8A"></path><path d="M103 987L0 1080L233 1080Z" fill="#2d2d2d" stroke="#FFED8A"></path><path d="M1920 459L1920 147L1724 248Z" fill="#313131" stroke="#FFED8A"></path><path d="M1510 1080L1782 1080L1754 864Z" fill="#252525" stroke="#FFED8A"></path><path d="M1754 864L1920 962L1920 639Z" fill="#282828" stroke="#FFED8A"></path><path d="M1920 147L1920 0L1682 0Z" fill="#2d2d2d" stroke="#FFED8A"></path><path d="M1782 1080L1920 962L1754 864Z" fill="#303030" stroke="#FFED8A"></path><path d="M1782 1080L1920 1080L1920 962Z" fill="#282828" stroke="#FFED8A"></path></g></svg>